<svg xmlns="http://www.w3.org/2000/svg" viewBox="0 0 1000 1000"><defs><style>.a{fill:red;}.b{fill:#fff;}</style></defs><rect width="1000" height="1000"/><path class="a" d="M571.49,749c-30.74,0-58.68-10-83-29.73-12.74-10.31-21.62-22.56-26.38-36.4-.16-.46-.33-.93-.49-1.4-5.47,3.25-10.71,6.33-16.31,9.18C421,703,397.53,709,373.43,709c-2.09,0-4.2,0-6.29-.14-42.85-1.89-83.46-33.33-94.45-73.13-9.71-35.17,3.95-78.2,31.78-100.11,10.24-8.06,21.67-12.14,33.95-12.14a58.77,58.77,0,0,1,9.54.8,75.45,75.45,0,0,1,38.93,18.56c13.25,12,19,25.78,17.07,41l1.48.26c1.68-5.22,1.36-10.89-.94-17.22-8.22-22.63-25.24-36.71-52-43a63.89,63.89,0,0,0-14.6-1.76c-31.28,0-49,25-56.72,39.89-3.93,7.55-6.82,16-9.87,24.89-1.47,4.3-3,8.74-4.69,13.25l-2.27,6-6.44.42c-2.52.16-5.07.24-7.57.24-25.81,0-49.71-8.45-71-25.11-16.56-12.94-29.32-30-40.15-53.63-12.86-28.09-23.21-82.63-20.9-110.11l1.41-16.82,14.08,9.32c2.65,1.76,5.26,3.55,7.78,5.29,5.49,3.77,10.68,7.33,16.07,10.41,14.82,8.45,27.66,12.39,40.41,12.39a60.35,60.35,0,0,0,11.1-1c12.32-2.29,22.35-9.89,32.39-18.14l3.55-2.93c5.22-4.31,10.62-8.77,16.26-12.94a73.11,73.11,0,0,1,44.32-14.83c10.72,0,21.89,2.11,34.17,6.46l4.08,1.45c5.16-50.46,27.45-84.21,67.88-102.94,17.65-8.18,35.43-12.32,52.84-12.32a115,115,0,0,1,42.83,8.44l8.94,3.57-3.23,9.07c-1.06,3-2.14,5.83-3.19,8.62-2.19,5.83-4.26,11.33-5.83,16.86-8.83,31.14-5.73,56.16,9.46,76.49,18.28,24.46,40.84,36.86,67.06,36.86h.9c15.32-.16,34-9.48,46.6-23.21,7.36-8.05,15.87-21.14,14.56-37.78a50.06,50.06,0,0,0-1.08-7.56c-1.31-5.62-2.26-8.2-2.85-9.39-.31.06-.67.13-1.09.24,8.37,22.46,1.84,44.73-17.94,60.29-13.78,10.84-27.27,16.11-41.24,16.11-15.07,0-30.06-6.06-47.17-19.1-24.15-18.39-33.86-44.5-28.86-77.63,7.29-48.36,36.87-82,81.13-92.32a170.12,170.12,0,0,1,38.42-4.5,163.34,163.34,0,0,1,31.43,3.08c37.19,7.33,66.25,25.51,86.35,54,13.09,18.58,21,40.23,23.53,64.36l.05.48c.08.72.16,1.47.23,2.17l2.7.57c27.62,5.76,50.82,17.14,69,33.82s31.32,38.84,39,65.69c20,69.85,2.15,132.4-53.06,185.91-20.58,20-47,30.5-76.43,30.51-27.42,0-54.77-9.38-75-25.73-14.16-11.43-22.88-28.13-24.54-47a74.88,74.88,0,0,1,18.06-55.4c8.94-10.27,23.27-23.92,44.44-23.92A53,53,0,0,1,718.4,536c1.67.34,3.29.76,4.88,1.24l-1.45-.71a34.8,34.8,0,0,0-15.68-3.83c-7.55,0-15.41,2.52-23.38,7.47-22.55,14-35.6,33.41-38.81,57.6-3.77,28.44,6.33,51,30.87,68.87l.18.13c4.53,3.3,8.45,6.15,9.47,11.66s-1.63,9.71-4.72,14.5c-20.25,31.35-50.28,49.78-89.27,54.77A150.21,150.21,0,0,1,571.49,749Z"/><path class="b" d="M622,256.34a152.4,152.4,0,0,1,29.49,2.89c33.11,6.52,60.47,22.11,80.11,50,12.59,17.87,19.5,38,21.77,59.64,1.06,10.19.87,9.88,10.88,12,51.83,10.81,85.95,42.07,100.38,92.48,19.62,68.5.07,127-50.4,176C794,668.86,769,677,744.74,677c-25.91,0-51-9.21-68.75-23.5-25.91-20.92-28.33-61.48-5.21-88.06,10.23-11.77,21.8-20.49,36.89-20.49a42.68,42.68,0,0,1,8.71.92c7.11,1.47,13.83,4.88,21.07,7.53,5.44-19.17,9-15.67-11.15-25.74a44.63,44.63,0,0,0-20.15-4.88c-10,0-19.7,3.4-28.66,9-23.85,14.84-39.67,36.32-43.44,64.77-4.36,32.92,8.29,58.86,34.89,78.26,7.11,5.19,7.3,5.23,2.42,12.8-19.31,29.89-47.57,45.85-82.14,50.27A139.21,139.21,0,0,1,571.49,739c-28,0-53.86-9-76.75-27.5C484.23,703,476,692.6,471.52,679.59c-1.46-4.27-3.18-8.44-4.83-12.79-9,5.22-17.28,10.49-26,14.91-21.21,10.8-43.51,17.25-67.3,17.25-1.94,0-3.89,0-5.85-.13C329,697.12,292.2,668.75,282.33,633c-8.6-31.15,3.75-70.25,28.32-89.59,8.39-6.59,17.67-10,27.77-10a47.67,47.67,0,0,1,7.89.67,65.39,65.39,0,0,1,33.85,16.09c12.16,11,17.73,24.17,11.67,41.5,6.32,1.16,12.18,2.41,18.11,3.12H410c1,0,2.55-2,3.2-3.34,4.48-9.21,4.07-18.76.69-28.06-10.11-27.84-31.51-42.83-59.14-49.34a73.6,73.6,0,0,0-16.89-2c-29.75,0-52.28,19.71-65.59,45.27-6.27,12-9.87,25.49-15,39.24q-3.48.23-6.93.22c-23.31,0-45.3-7.69-64.88-23-16.91-13.22-28.36-30.58-37.22-49.93-12-26.09-22.23-78.87-20-105.1,8.23,5.45,16,11.26,24.43,16.05,14.28,8.14,29.25,13.7,45.36,13.7a70.27,70.27,0,0,0,12.93-1.21c14.48-2.7,25.87-11.18,36.91-20.25,6.41-5.26,12.74-10.63,19.4-15.56a62.81,62.81,0,0,1,38.38-12.86c10.08,0,20.38,2.19,30.83,5.89,5.29,1.87,10.58,3.76,16.46,5.85,2-47.62,17.78-86.73,63-107.7,15.93-7.38,32.18-11.39,48.64-11.39A104.7,104.7,0,0,1,503.68,299c-3.22,9-6.76,17.42-9.22,26.11-8.48,29.93-8.14,59.5,11.07,85.2C524,435,548.44,451.2,580.6,451.2h1c31.14-.32,74.18-31.72,71-71.77a61.23,61.23,0,0,0-1.31-9.06c-2.82-12.08-5.37-17.2-11.68-17.2-3.59,0-8.41,1.66-15.19,4.66.79,1.88,1.53,3.81,2.38,5.68,9.08,20,4,38.84-13.31,52.42-12.32,9.7-23.82,14-35.06,14-13.73,0-27.09-6.37-41.11-17.05-22.87-17.42-29.13-41.07-25-68.18,6-39.55,29-73.71,73.52-84.08A159.41,159.41,0,0,1,622,256.34m0-20a180.16,180.16,0,0,0-40.68,4.76c-25.57,6-46.49,18.72-62.17,37.93-1,1.15-1.86,2.32-2.76,3.52l-5.27-2.11a125.06,125.06,0,0,0-46.54-9.15c-18.87,0-38.06,4.45-57,13.25-25.4,11.76-44.56,29.44-57,52.53-7.24,13.48-12.23,28.72-15.06,46.14a105.58,105.58,0,0,0-29.9-4.57,82.92,82.92,0,0,0-50.27,16.79c-5.86,4.33-11.36,8.88-16.69,13.28q-1.75,1.46-3.52,2.9c-9,7.39-17.89,14.18-27.87,16a50.15,50.15,0,0,1-9.27.87c-10.94,0-22.21-3.52-35.45-11.07-5-2.88-10.05-6.33-15.37-10-2.56-1.76-5.2-3.57-7.92-5.38l-28.15-18.64-2.83,33.64c-2.46,29.34,8.12,85.28,21.78,115.11,11.36,24.82,25.46,43.58,43.09,57.35,23.12,18.07,49.09,27.23,77.19,27.23,2.71,0,5.48-.09,8.21-.26l1.18-.08a97.21,97.21,0,0,0,3.35,21.91c5.92,21.43,19.74,41.37,38.92,56.17,19,14.66,42,23.29,64.73,24.29,2.23.1,4.5.15,6.73.15,25.71,0,50.7-6.35,76.37-19.43,2.33-1.18,4.62-2.42,6.88-3.68A93.36,93.36,0,0,0,482.15,727c26.19,21.2,56.25,32,89.34,32a160.86,160.86,0,0,0,20.27-1.32c20.32-2.6,38.67-8.75,54.54-18.27a128.31,128.31,0,0,0,41.86-41c2-3.12,4.46-6.92,5.72-11.51A134.51,134.51,0,0,0,744.74,697a121.93,121.93,0,0,0,43.35-7.79,116.43,116.43,0,0,0,40-25.53c28.1-27.23,47.18-57.28,56.73-89.29,10-33.47,9.64-69.32-1-106.55-16-55.93-54.4-92.36-111.15-105.59-3.19-24-11.51-45.7-24.76-64.51-21.63-30.7-52.79-50.24-92.59-58.08A173,173,0,0,0,622,236.34Z"/></svg>